<?xml version="1.0" encoding="utf-8" standalone="no"?>
<!DOCTYPE svg PUBLIC "-//W3C//DTD SVG 1.1//EN"
  "http://www.w3.org/Graphics/SVG/1.1/DTD/svg11.dtd">
<svg xmlns:xlink="http://www.w3.org/1999/xlink" width="493.25pt" height="281.634375pt" viewBox="0 0 493.25 281.634375" xmlns="http://www.w3.org/2000/svg" version="1.1">
 <metadata>
  <rdf:RDF xmlns:dc="http://purl.org/dc/elements/1.1/" xmlns:cc="http://creativecommons.org/ns#" xmlns:rdf="http://www.w3.org/1999/02/22-rdf-syntax-ns#">
   <cc:Work>
    <dc:type rdf:resource="http://purl.org/dc/dcmitype/StillImage"/>
    <dc:date>2026-06-28T09:03:14.810143</dc:date>
    <dc:format>image/svg+xml</dc:format>
    <dc:creator>
     <cc:Agent>
      <dc:title>Matplotlib v3.10.3, https://matplotlib.org/</dc:title>
     </cc:Agent>
    </dc:creator>
   </cc:Work>
  </rdf:RDF>
 </metadata>
 <defs>
  <style type="text/css">*{stroke-linejoin: round; stroke-linecap: butt}</style>
 </defs>
 <g id="figure_1">
  <g id="patch_1">
   <path d="M 0 281.634375 
L 493.25 281.634375 
L 493.25 0 
L 0 0 
z
" style="fill: #ffffff"/>
  </g>
  <g id="axes_1">
   <g id="patch_2">
    <path d="M 39.65 244.078125 
L 486.05 244.078125 
L 486.05 22.318125 
L 39.65 22.318125 
z
" style="fill: #ffffff"/>
   </g>
   <g id="patch_3">
    <path d="M 107.875137 244.078125 
L 113.302521 244.078125 
L 113.302521 243.879255 
L 107.875137 243.879255 
z
" clip-path="url(#p4c36cab946)" style="fill: #1f77b4; opacity: 0.5"/>
   </g>
   <g id="patch_4">
    <path d="M 113.302521 244.078125 
L 118.729905 244.078125 
L 118.729905 244.078125 
L 113.302521 244.078125 
z
" clip-path="url(#p4c36cab946)" style="fill: #1f77b4; opacity: 0.5"/>
   </g>
   <g id="patch_5">
    <path d="M 118.729905 244.078125 
L 124.157289 244.078125 
L 124.157289 243.680385 
L 118.729905 243.680385 
z
" clip-path="url(#p4c36cab946)" style="fill: #1f77b4; opacity: 0.5"/>
   </g>
   <g id="patch_6">
    <path d="M 124.157289 244.078125 
L 129.584673 244.078125 
L 129.584673 243.680385 
L 124.157289 243.680385 
z
" clip-path="url(#p4c36cab946)" style="fill: #1f77b4; opacity: 0.5"/>
   </g>
   <g id="patch_7">
    <path d="M 129.584673 244.078125 
L 135.012057 244.078125 
L 135.012057 243.282645 
L 129.584673 243.282645 
z
" clip-path="url(#p4c36cab946)" style="fill: #1f77b4; opacity: 0.5"/>
   </g>
   <g id="patch_8">
    <path d="M 135.012057 244.078125 
L 140.439441 244.078125 
L 140.439441 242.884905 
L 135.012057 242.884905 
z
" clip-path="url(#p4c36cab946)" style="fill: #1f77b4; opacity: 0.5"/>
   </g>
   <g id="patch_9">
    <path d="M 140.439441 244.078125 
L 145.866825 244.078125 
L 145.866825 242.089424 
L 140.439441 242.089424 
z
" clip-path="url(#p4c36cab946)" style="fill: #1f77b4; opacity: 0.5"/>
   </g>
   <g id="patch_10">
    <path d="M 145.866825 244.078125 
L 151.294209 244.078125 
L 151.294209 241.095074 
L 145.866825 241.095074 
z
" clip-path="url(#p4c36cab946)" style="fill: #1f77b4; opacity: 0.5"/>
   </g>
   <g id="patch_11">
    <path d="M 151.294209 244.078125 
L 156.721593 244.078125 
L 156.721593 240.697334 
L 151.294209 240.697334 
z
" clip-path="url(#p4c36cab946)" style="fill: #1f77b4; opacity: 0.5"/>
   </g>
   <g id="patch_12">
    <path d="M 156.721593 244.078125 
L 162.148977 244.078125 
L 162.148977 241.293944 
L 156.721593 241.293944 
z
" clip-path="url(#p4c36cab946)" style="fill: #1f77b4; opacity: 0.5"/>
   </g>
   <g id="patch_13">
    <path d="M 162.148977 244.078125 
L 167.576361 244.078125 
L 167.576361 239.305244 
L 162.148977 239.305244 
z
" clip-path="url(#p4c36cab946)" style="fill: #1f77b4; opacity: 0.5"/>
   </g>
   <g id="patch_14">
    <path d="M 167.576361 244.078125 
L 173.003745 244.078125 
L 173.003745 236.719933 
L 167.576361 236.719933 
z
" clip-path="url(#p4c36cab946)" style="fill: #1f77b4; opacity: 0.5"/>
   </g>
   <g id="patch_15">
    <path d="M 173.003745 244.078125 
L 178.43113 244.078125 
L 178.43113 234.532362 
L 173.003745 234.532362 
z
" clip-path="url(#p4c36cab946)" style="fill: #1f77b4; opacity: 0.5"/>
   </g>
   <g id="patch_16">
    <path d="M 178.43113 244.078125 
L 183.858514 244.078125 
L 183.858514 221.804679 
L 178.43113 221.804679 
z
" clip-path="url(#p4c36cab946)" style="fill: #1f77b4; opacity: 0.5"/>
   </g>
   <g id="patch_17">
    <path d="M 183.858514 244.078125 
L 189.285898 244.078125 
L 189.285898 195.553831 
L 183.858514 195.553831 
z
" clip-path="url(#p4c36cab946)" style="fill: #1f77b4; opacity: 0.5"/>
   </g>
   <g id="patch_18">
    <path d="M 189.285898 244.078125 
L 194.713282 244.078125 
L 194.713282 205.497334 
L 189.285898 205.497334 
z
" clip-path="url(#p4c36cab946)" style="fill: #1f77b4; opacity: 0.5"/>
   </g>
   <g id="patch_19">
    <path d="M 194.713282 244.078125 
L 200.140666 244.078125 
L 200.140666 231.350441 
L 194.713282 231.350441 
z
" clip-path="url(#p4c36cab946)" style="fill: #1f77b4; opacity: 0.5"/>
   </g>
   <g id="patch_20">
    <path d="M 200.140666 244.078125 
L 205.56805 244.078125 
L 205.56805 236.521063 
L 200.140666 236.521063 
z
" clip-path="url(#p4c36cab946)" style="fill: #1f77b4; opacity: 0.5"/>
   </g>
   <g id="patch_21">
    <path d="M 205.56805 244.078125 
L 210.995434 244.078125 
L 210.995434 239.106374 
L 205.56805 239.106374 
z
" clip-path="url(#p4c36cab946)" style="fill: #1f77b4; opacity: 0.5"/>
   </g>
   <g id="patch_22">
    <path d="M 210.995434 244.078125 
L 216.422818 244.078125 
L 216.422818 241.095074 
L 210.995434 241.095074 
z
" clip-path="url(#p4c36cab946)" style="fill: #1f77b4; opacity: 0.5"/>
   </g>
   <g id="patch_23">
    <path d="M 216.422818 244.078125 
L 221.850202 244.078125 
L 221.850202 242.686035 
L 216.422818 242.686035 
z
" clip-path="url(#p4c36cab946)" style="fill: #1f77b4; opacity: 0.5"/>
   </g>
   <g id="patch_24">
    <path d="M 221.850202 244.078125 
L 227.277586 244.078125 
L 227.277586 242.288294 
L 221.850202 242.288294 
z
" clip-path="url(#p4c36cab946)" style="fill: #1f77b4; opacity: 0.5"/>
   </g>
   <g id="patch_25">
    <path d="M 227.277586 244.078125 
L 232.70497 244.078125 
L 232.70497 243.879255 
L 227.277586 243.879255 
z
" clip-path="url(#p4c36cab946)" style="fill: #1f77b4; opacity: 0.5"/>
   </g>
   <g id="patch_26">
    <path d="M 232.70497 244.078125 
L 238.132354 244.078125 
L 238.132354 243.083775 
L 232.70497 243.083775 
z
" clip-path="url(#p4c36cab946)" style="fill: #1f77b4; opacity: 0.5"/>
   </g>
   <g id="patch_27">
    <path d="M 238.132354 244.078125 
L 243.559738 244.078125 
L 243.559738 243.680385 
L 238.132354 243.680385 
z
" clip-path="url(#p4c36cab946)" style="fill: #1f77b4; opacity: 0.5"/>
   </g>
   <g id="patch_28">
    <path d="M 243.559738 244.078125 
L 248.987122 244.078125 
L 248.987122 243.879255 
L 243.559738 243.879255 
z
" clip-path="url(#p4c36cab946)" style="fill: #1f77b4; opacity: 0.5"/>
   </g>
   <g id="patch_29">
    <path d="M 248.987122 244.078125 
L 254.414506 244.078125 
L 254.414506 244.078125 
L 248.987122 244.078125 
z
" clip-path="url(#p4c36cab946)" style="fill: #1f77b4; opacity: 0.5"/>
   </g>
   <g id="patch_30">
    <path d="M 254.414506 244.078125 
L 259.84189 244.078125 
L 259.84189 243.680385 
L 254.414506 243.680385 
z
" clip-path="url(#p4c36cab946)" style="fill: #1f77b4; opacity: 0.5"/>
   </g>
   <g id="patch_31">
    <path d="M 259.84189 244.078125 
L 265.269274 244.078125 
L 265.269274 243.680385 
L 259.84189 243.680385 
z
" clip-path="url(#p4c36cab946)" style="fill: #1f77b4; opacity: 0.5"/>
   </g>
   <g id="patch_32">
    <path d="M 265.269274 244.078125 
L 270.696658 244.078125 
L 270.696658 243.481515 
L 265.269274 243.481515 
z
" clip-path="url(#p4c36cab946)" style="fill: #1f77b4; opacity: 0.5"/>
   </g>
   <g id="patch_33">
    <path d="M 88.350862 244.078125 
L 95.129554 244.078125 
L 95.129554 243.481515 
L 88.350862 243.481515 
z
" clip-path="url(#p4c36cab946)" style="fill: #ff7f0e; opacity: 0.5"/>
   </g>
   <g id="patch_34">
    <path d="M 95.129554 244.078125 
L 101.908245 244.078125 
L 101.908245 243.879255 
L 95.129554 243.879255 
z
" clip-path="url(#p4c36cab946)" style="fill: #ff7f0e; opacity: 0.5"/>
   </g>
   <g id="patch_35">
    <path d="M 101.908245 244.078125 
L 108.686936 244.078125 
L 108.686936 243.680385 
L 101.908245 243.680385 
z
" clip-path="url(#p4c36cab946)" style="fill: #ff7f0e; opacity: 0.5"/>
   </g>
   <g id="patch_36">
    <path d="M 108.686936 244.078125 
L 115.465628 244.078125 
L 115.465628 242.686035 
L 108.686936 242.686035 
z
" clip-path="url(#p4c36cab946)" style="fill: #ff7f0e; opacity: 0.5"/>
   </g>
   <g id="patch_37">
    <path d="M 115.465628 244.078125 
L 122.244319 244.078125 
L 122.244319 241.492814 
L 115.465628 241.492814 
z
" clip-path="url(#p4c36cab946)" style="fill: #ff7f0e; opacity: 0.5"/>
   </g>
   <g id="patch_38">
    <path d="M 122.244319 244.078125 
L 129.02301 244.078125 
L 129.02301 241.492814 
L 122.244319 241.492814 
z
" clip-path="url(#p4c36cab946)" style="fill: #ff7f0e; opacity: 0.5"/>
   </g>
   <g id="patch_39">
    <path d="M 129.02301 244.078125 
L 135.801702 244.078125 
L 135.801702 240.498464 
L 129.02301 240.498464 
z
" clip-path="url(#p4c36cab946)" style="fill: #ff7f0e; opacity: 0.5"/>
   </g>
   <g id="patch_40">
    <path d="M 135.801702 244.078125 
L 142.580393 244.078125 
L 142.580393 239.504114 
L 135.801702 239.504114 
z
" clip-path="url(#p4c36cab946)" style="fill: #ff7f0e; opacity: 0.5"/>
   </g>
   <g id="patch_41">
    <path d="M 142.580393 244.078125 
L 149.359084 244.078125 
L 149.359084 237.714283 
L 142.580393 237.714283 
z
" clip-path="url(#p4c36cab946)" style="fill: #ff7f0e; opacity: 0.5"/>
   </g>
   <g id="patch_42">
    <path d="M 149.359084 244.078125 
L 156.137775 244.078125 
L 156.137775 233.339142 
L 149.359084 233.339142 
z
" clip-path="url(#p4c36cab946)" style="fill: #ff7f0e; opacity: 0.5"/>
   </g>
   <g id="patch_43">
    <path d="M 156.137775 244.078125 
L 162.916467 244.078125 
L 162.916467 228.566261 
L 156.137775 228.566261 
z
" clip-path="url(#p4c36cab946)" style="fill: #ff7f0e; opacity: 0.5"/>
   </g>
   <g id="patch_44">
    <path d="M 162.916467 244.078125 
L 169.695158 244.078125 
L 169.695158 222.600159 
L 162.916467 222.600159 
z
" clip-path="url(#p4c36cab946)" style="fill: #ff7f0e; opacity: 0.5"/>
   </g>
   <g id="patch_45">
    <path d="M 169.695158 244.078125 
L 176.473849 244.078125 
L 176.473849 207.088294 
L 169.695158 207.088294 
z
" clip-path="url(#p4c36cab946)" style="fill: #ff7f0e; opacity: 0.5"/>
   </g>
   <g id="patch_46">
    <path d="M 176.473849 244.078125 
L 183.252541 244.078125 
L 183.252541 171.490554 
L 176.473849 171.490554 
z
" clip-path="url(#p4c36cab946)" style="fill: #ff7f0e; opacity: 0.5"/>
   </g>
   <g id="patch_47">
    <path d="M 183.252541 244.078125 
L 190.031232 244.078125 
L 190.031232 32.878125 
L 183.252541 32.878125 
z
" clip-path="url(#p4c36cab946)" style="fill: #ff7f0e; opacity: 0.5"/>
   </g>
   <g id="patch_48">
    <path d="M 190.031232 244.078125 
L 196.809923 244.078125 
L 196.809923 118.988859 
L 190.031232 118.988859 
z
" clip-path="url(#p4c36cab946)" style="fill: #ff7f0e; opacity: 0.5"/>
   </g>
   <g id="patch_49">
    <path d="M 196.809923 244.078125 
L 203.588615 244.078125 
L 203.588615 209.275865 
L 196.809923 209.275865 
z
" clip-path="url(#p4c36cab946)" style="fill: #ff7f0e; opacity: 0.5"/>
   </g>
   <g id="patch_50">
    <path d="M 203.588615 244.078125 
L 210.367306 244.078125 
L 210.367306 222.997899 
L 203.588615 222.997899 
z
" clip-path="url(#p4c36cab946)" style="fill: #ff7f0e; opacity: 0.5"/>
   </g>
   <g id="patch_51">
    <path d="M 210.367306 244.078125 
L 217.145997 244.078125 
L 217.145997 235.128972 
L 210.367306 235.128972 
z
" clip-path="url(#p4c36cab946)" style="fill: #ff7f0e; opacity: 0.5"/>
   </g>
   <g id="patch_52">
    <path d="M 217.145997 244.078125 
L 223.924689 244.078125 
L 223.924689 239.702984 
L 217.145997 239.702984 
z
" clip-path="url(#p4c36cab946)" style="fill: #ff7f0e; opacity: 0.5"/>
   </g>
   <g id="patch_53">
    <path d="M 223.924689 244.078125 
L 230.70338 244.078125 
L 230.70338 237.913153 
L 223.924689 237.913153 
z
" clip-path="url(#p4c36cab946)" style="fill: #ff7f0e; opacity: 0.5"/>
   </g>
   <g id="patch_54">
    <path d="M 230.70338 244.078125 
L 237.482071 244.078125 
L 237.482071 240.498464 
L 230.70338 240.498464 
z
" clip-path="url(#p4c36cab946)" style="fill: #ff7f0e; opacity: 0.5"/>
   </g>
   <g id="patch_55">
    <path d="M 237.482071 244.078125 
L 244.260763 244.078125 
L 244.260763 242.686035 
L 237.482071 242.686035 
z
" clip-path="url(#p4c36cab946)" style="fill: #ff7f0e; opacity: 0.5"/>
   </g>
   <g id="patch_56">
    <path d="M 244.260763 244.078125 
L 251.039454 244.078125 
L 251.039454 242.686035 
L 244.260763 242.686035 
z
" clip-path="url(#p4c36cab946)" style="fill: #ff7f0e; opacity: 0.5"/>
   </g>
   <g id="patch_57">
    <path d="M 251.039454 244.078125 
L 257.818145 244.078125 
L 257.818145 241.095074 
L 251.039454 241.095074 
z
" clip-path="url(#p4c36cab946)" style="fill: #ff7f0e; opacity: 0.5"/>
   </g>
   <g id="patch_58">
    <path d="M 257.818145 244.078125 
L 264.596836 244.078125 
L 264.596836 243.083775 
L 257.818145 243.083775 
z
" clip-path="url(#p4c36cab946)" style="fill: #ff7f0e; opacity: 0.5"/>
   </g>
   <g id="patch_59">
    <path d="M 264.596836 244.078125 
L 271.375528 244.078125 
L 271.375528 243.879255 
L 264.596836 243.879255 
z
" clip-path="url(#p4c36cab946)" style="fill: #ff7f0e; opacity: 0.5"/>
   </g>
   <g id="patch_60">
    <path d="M 271.375528 244.078125 
L 278.154219 244.078125 
L 278.154219 243.680385 
L 271.375528 243.680385 
z
" clip-path="url(#p4c36cab946)" style="fill: #ff7f0e; opacity: 0.5"/>
   </g>
   <g id="patch_61">
    <path d="M 278.154219 244.078125 
L 284.93291 244.078125 
L 284.93291 244.078125 
L 278.154219 244.078125 
z
" clip-path="url(#p4c36cab946)" style="fill: #ff7f0e; opacity: 0.5"/>
   </g>
   <g id="patch_62">
    <path d="M 284.93291 244.078125 
L 291.711602 244.078125 
L 291.711602 243.879255 
L 284.93291 243.879255 
z
" clip-path="url(#p4c36cab946)" style="fill: #ff7f0e; opacity: 0.5"/>
   </g>
   <g id="patch_63">
    <path d="M 59.940909 244.078125 
L 73.468182 244.078125 
L 73.468182 243.481515 
L 59.940909 243.481515 
z
" clip-path="url(#p4c36cab946)" style="fill: #2ca02c; opacity: 0.5"/>
   </g>
   <g id="patch_64">
    <path d="M 73.468182 244.078125 
L 86.995455 244.078125 
L 86.995455 243.481515 
L 73.468182 243.481515 
z
" clip-path="url(#p4c36cab946)" style="fill: #2ca02c; opacity: 0.5"/>
   </g>
   <g id="patch_65">
    <path d="M 86.995455 244.078125 
L 100.522727 244.078125 
L 100.522727 242.884905 
L 86.995455 242.884905 
z
" clip-path="url(#p4c36cab946)" style="fill: #2ca02c; opacity: 0.5"/>
   </g>
   <g id="patch_66">
    <path d="M 100.522727 244.078125 
L 114.05 244.078125 
L 114.05 242.288294 
L 100.522727 242.288294 
z
" clip-path="url(#p4c36cab946)" style="fill: #2ca02c; opacity: 0.5"/>
   </g>
   <g id="patch_67">
    <path d="M 114.05 244.078125 
L 127.577273 244.078125 
L 127.577273 241.293944 
L 114.05 241.293944 
z
" clip-path="url(#p4c36cab946)" style="fill: #2ca02c; opacity: 0.5"/>
   </g>
   <g id="patch_68">
    <path d="M 127.577273 244.078125 
L 141.104545 244.078125 
L 141.104545 238.112023 
L 127.577273 238.112023 
z
" clip-path="url(#p4c36cab946)" style="fill: #2ca02c; opacity: 0.5"/>
   </g>
   <g id="patch_69">
    <path d="M 141.104545 244.078125 
L 154.631818 244.078125 
L 154.631818 230.157221 
L 141.104545 230.157221 
z
" clip-path="url(#p4c36cab946)" style="fill: #2ca02c; opacity: 0.5"/>
   </g>
   <g id="patch_70">
    <path d="M 154.631818 244.078125 
L 168.159091 244.078125 
L 168.159091 220.810328 
L 154.631818 220.810328 
z
" clip-path="url(#p4c36cab946)" style="fill: #2ca02c; opacity: 0.5"/>
   </g>
   <g id="patch_71">
    <path d="M 168.159091 244.078125 
L 181.686364 244.078125 
L 181.686364 178.053266 
L 168.159091 178.053266 
z
" clip-path="url(#p4c36cab946)" style="fill: #2ca02c; opacity: 0.5"/>
   </g>
   <g id="patch_72">
    <path d="M 181.686364 244.078125 
L 195.213636 244.078125 
L 195.213636 126.347052 
L 181.686364 126.347052 
z
" clip-path="url(#p4c36cab946)" style="fill: #2ca02c; opacity: 0.5"/>
   </g>
   <g id="patch_73">
    <path d="M 195.213636 244.078125 
L 208.740909 244.078125 
L 208.740909 213.253266 
L 195.213636 213.253266 
z
" clip-path="url(#p4c36cab946)" style="fill: #2ca02c; opacity: 0.5"/>
   </g>
   <g id="patch_74">
    <path d="M 208.740909 244.078125 
L 222.268182 244.078125 
L 222.268182 235.526713 
L 208.740909 235.526713 
z
" clip-path="url(#p4c36cab946)" style="fill: #2ca02c; opacity: 0.5"/>
   </g>
   <g id="patch_75">
    <path d="M 222.268182 244.078125 
L 235.795455 244.078125 
L 235.795455 241.691684 
L 222.268182 241.691684 
z
" clip-path="url(#p4c36cab946)" style="fill: #2ca02c; opacity: 0.5"/>
   </g>
   <g id="patch_76">
    <path d="M 235.795455 244.078125 
L 249.322727 244.078125 
L 249.322727 240.498464 
L 235.795455 240.498464 
z
" clip-path="url(#p4c36cab946)" style="fill: #2ca02c; opacity: 0.5"/>
   </g>
   <g id="patch_77">
    <path d="M 249.322727 244.078125 
L 262.85 244.078125 
L 262.85 242.487165 
L 249.322727 242.487165 
z
" clip-path="url(#p4c36cab946)" style="fill: #2ca02c; opacity: 0.5"/>
   </g>
   <g id="patch_78">
    <path d="M 262.85 244.078125 
L 276.377273 244.078125 
L 276.377273 243.879255 
L 262.85 243.879255 
z
" clip-path="url(#p4c36cab946)" style="fill: #2ca02c; opacity: 0.5"/>
   </g>
   <g id="patch_79">
    <path d="M 276.377273 244.078125 
L 289.904545 244.078125 
L 289.904545 243.879255 
L 276.377273 243.879255 
z
" clip-path="url(#p4c36cab946)" style="fill: #2ca02c; opacity: 0.5"/>
   </g>
   <g id="patch_80">
    <path d="M 289.904545 244.078125 
L 303.431818 244.078125 
L 303.431818 244.078125 
L 289.904545 244.078125 
z
" clip-path="url(#p4c36cab946)" style="fill: #2ca02c; opacity: 0.5"/>
   </g>
   <g id="patch_81">
    <path d="M 303.431818 244.078125 
L 316.959091 244.078125 
L 316.959091 244.078125 
L 303.431818 244.078125 
z
" clip-path="url(#p4c36cab946)" style="fill: #2ca02c; opacity: 0.5"/>
   </g>
   <g id="patch_82">
    <path d="M 316.959091 244.078125 
L 330.486364 244.078125 
L 330.486364 244.078125 
L 316.959091 244.078125 
z
" clip-path="url(#p4c36cab946)" style="fill: #2ca02c; opacity: 0.5"/>
   </g>
   <g id="patch_83">
    <path d="M 330.486364 244.078125 
L 344.013636 244.078125 
L 344.013636 244.078125 
L 330.486364 244.078125 
z
" clip-path="url(#p4c36cab946)" style="fill: #2ca02c; opacity: 0.5"/>
   </g>
   <g id="patch_84">
    <path d="M 344.013636 244.078125 
L 357.540909 244.078125 
L 357.540909 244.078125 
L 344.013636 244.078125 
z
" clip-path="url(#p4c36cab946)" style="fill: #2ca02c; opacity: 0.5"/>
   </g>
   <g id="patch_85">
    <path d="M 357.540909 244.078125 
L 371.068182 244.078125 
L 371.068182 244.078125 
L 357.540909 244.078125 
z
" clip-path="url(#p4c36cab946)" style="fill: #2ca02c; opacity: 0.5"/>
   </g>
   <g id="patch_86">
    <path d="M 371.068182 244.078125 
L 384.595455 244.078125 
L 384.595455 244.078125 
L 371.068182 244.078125 
z
" clip-path="url(#p4c36cab946)" style="fill: #2ca02c; opacity: 0.5"/>
   </g>
   <g id="patch_87">
    <path d="M 384.595455 244.078125 
L 398.122727 244.078125 
L 398.122727 244.078125 
L 384.595455 244.078125 
z
" clip-path="url(#p4c36cab946)" style="fill: #2ca02c; opacity: 0.5"/>
   </g>
   <g id="patch_88">
    <path d="M 398.122727 244.078125 
L 411.65 244.078125 
L 411.65 244.078125 
L 398.122727 244.078125 
z
" clip-path="url(#p4c36cab946)" style="fill: #2ca02c; opacity: 0.5"/>
   </g>
   <g id="patch_89">
    <path d="M 411.65 244.078125 
L 425.177273 244.078125 
L 425.177273 244.078125 
L 411.65 244.078125 
z
" clip-path="url(#p4c36cab946)" style="fill: #2ca02c; opacity: 0.5"/>
   </g>
   <g id="patch_90">
    <path d="M 425.177273 244.078125 
L 438.704545 244.078125 
L 438.704545 244.078125 
L 425.177273 244.078125 
z
" clip-path="url(#p4c36cab946)" style="fill: #2ca02c; opacity: 0.5"/>
   </g>
   <g id="patch_91">
    <path d="M 438.704545 244.078125 
L 452.231818 244.078125 
L 452.231818 244.078125 
L 438.704545 244.078125 
z
" clip-path="url(#p4c36cab946)" style="fill: #2ca02c; opacity: 0.5"/>
   </g>
   <g id="patch_92">
    <path d="M 452.231818 244.078125 
L 465.759091 244.078125 
L 465.759091 243.879255 
L 452.231818 243.879255 
z
" clip-path="url(#p4c36cab946)" style="fill: #2ca02c; opacity: 0.5"/>
   </g>
   <g id="patch_93">
    <path d="M 128.287675 244.078125 
L 132.675705 244.078125 
L 132.675705 243.282645 
L 128.287675 243.282645 
z
" clip-path="url(#p4c36cab946)" style="fill: #d62728; opacity: 0.5"/>
   </g>
   <g id="patch_94">
    <path d="M 132.675705 244.078125 
L 137.063735 244.078125 
L 137.063735 243.879255 
L 132.675705 243.879255 
z
" clip-path="url(#p4c36cab946)" style="fill: #d62728; opacity: 0.5"/>
   </g>
   <g id="patch_95">
    <path d="M 137.063735 244.078125 
L 141.451765 244.078125 
L 141.451765 243.282645 
L 137.063735 243.282645 
z
" clip-path="url(#p4c36cab946)" style="fill: #d62728; opacity: 0.5"/>
   </g>
   <g id="patch_96">
    <path d="M 141.451765 244.078125 
L 145.839795 244.078125 
L 145.839795 243.481515 
L 141.451765 243.481515 
z
" clip-path="url(#p4c36cab946)" style="fill: #d62728; opacity: 0.5"/>
   </g>
   <g id="patch_97">
    <path d="M 145.839795 244.078125 
L 150.227825 244.078125 
L 150.227825 241.691684 
L 145.839795 241.691684 
z
" clip-path="url(#p4c36cab946)" style="fill: #d62728; opacity: 0.5"/>
   </g>
   <g id="patch_98">
    <path d="M 150.227825 244.078125 
L 154.615855 244.078125 
L 154.615855 241.890554 
L 150.227825 241.890554 
z
" clip-path="url(#p4c36cab946)" style="fill: #d62728; opacity: 0.5"/>
   </g>
   <g id="patch_99">
    <path d="M 154.615855 244.078125 
L 159.003886 244.078125 
L 159.003886 239.305244 
L 154.615855 239.305244 
z
" clip-path="url(#p4c36cab946)" style="fill: #d62728; opacity: 0.5"/>
   </g>
   <g id="patch_100">
    <path d="M 159.003886 244.078125 
L 163.391916 244.078125 
L 163.391916 240.697334 
L 159.003886 240.697334 
z
" clip-path="url(#p4c36cab946)" style="fill: #d62728; opacity: 0.5"/>
   </g>
   <g id="patch_101">
    <path d="M 163.391916 244.078125 
L 167.779946 244.078125 
L 167.779946 240.697334 
L 163.391916 240.697334 
z
" clip-path="url(#p4c36cab946)" style="fill: #d62728; opacity: 0.5"/>
   </g>
   <g id="patch_102">
    <path d="M 167.779946 244.078125 
L 172.167976 244.078125 
L 172.167976 238.708633 
L 167.779946 238.708633 
z
" clip-path="url(#p4c36cab946)" style="fill: #d62728; opacity: 0.5"/>
   </g>
   <g id="patch_103">
    <path d="M 172.167976 244.078125 
L 176.556006 244.078125 
L 176.556006 237.316543 
L 172.167976 237.316543 
z
" clip-path="url(#p4c36cab946)" style="fill: #d62728; opacity: 0.5"/>
   </g>
   <g id="patch_104">
    <path d="M 176.556006 244.078125 
L 180.944036 244.078125 
L 180.944036 235.725583 
L 176.556006 235.725583 
z
" clip-path="url(#p4c36cab946)" style="fill: #d62728; opacity: 0.5"/>
   </g>
   <g id="patch_105">
    <path d="M 180.944036 244.078125 
L 185.332066 244.078125 
L 185.332066 221.009198 
L 180.944036 221.009198 
z
" clip-path="url(#p4c36cab946)" style="fill: #d62728; opacity: 0.5"/>
   </g>
   <g id="patch_106">
    <path d="M 185.332066 244.078125 
L 189.720096 244.078125 
L 189.720096 201.718803 
L 185.332066 201.718803 
z
" clip-path="url(#p4c36cab946)" style="fill: #d62728; opacity: 0.5"/>
   </g>
   <g id="patch_107">
    <path d="M 189.720096 244.078125 
L 194.108126 244.078125 
L 194.108126 217.827278 
L 189.720096 217.827278 
z
" clip-path="url(#p4c36cab946)" style="fill: #d62728; opacity: 0.5"/>
   </g>
   <g id="patch_108">
    <path d="M 194.108126 244.078125 
L 198.496157 244.078125 
L 198.496157 234.731232 
L 194.108126 234.731232 
z
" clip-path="url(#p4c36cab946)" style="fill: #d62728; opacity: 0.5"/>
   </g>
   <g id="patch_109">
    <path d="M 198.496157 244.078125 
L 202.884187 244.078125 
L 202.884187 237.913153 
L 198.496157 237.913153 
z
" clip-path="url(#p4c36cab946)" style="fill: #d62728; opacity: 0.5"/>
   </g>
   <g id="patch_110">
    <path d="M 202.884187 244.078125 
L 207.272217 244.078125 
L 207.272217 239.504114 
L 202.884187 239.504114 
z
" clip-path="url(#p4c36cab946)" style="fill: #d62728; opacity: 0.5"/>
   </g>
   <g id="patch_111">
    <path d="M 207.272217 244.078125 
L 211.660247 244.078125 
L 211.660247 240.896204 
L 207.272217 240.896204 
z
" clip-path="url(#p4c36cab946)" style="fill: #d62728; opacity: 0.5"/>
   </g>
   <g id="patch_112">
    <path d="M 211.660247 244.078125 
L 216.048277 244.078125 
L 216.048277 241.293944 
L 211.660247 241.293944 
z
" clip-path="url(#p4c36cab946)" style="fill: #d62728; opacity: 0.5"/>
   </g>
   <g id="patch_113">
    <path d="M 216.048277 244.078125 
L 220.436307 244.078125 
L 220.436307 242.288294 
L 216.048277 242.288294 
z
" clip-path="url(#p4c36cab946)" style="fill: #d62728; opacity: 0.5"/>
   </g>
   <g id="patch_114">
    <path d="M 220.436307 244.078125 
L 224.824337 244.078125 
L 224.824337 242.686035 
L 220.436307 242.686035 
z
" clip-path="url(#p4c36cab946)" style="fill: #d62728; opacity: 0.5"/>
   </g>
   <g id="patch_115">
    <path d="M 224.824337 244.078125 
L 229.212367 244.078125 
L 229.212367 243.680385 
L 224.824337 243.680385 
z
" clip-path="url(#p4c36cab946)" style="fill: #d62728; opacity: 0.5"/>
   </g>
   <g id="patch_116">
    <path d="M 229.212367 244.078125 
L 233.600397 244.078125 
L 233.600397 243.481515 
L 229.212367 243.481515 
z
" clip-path="url(#p4c36cab946)" style="fill: #d62728; opacity: 0.5"/>
   </g>
   <g id="patch_117">
    <path d="M 233.600397 244.078125 
L 237.988428 244.078125 
L 237.988428 243.680385 
L 233.600397 243.680385 
z
" clip-path="url(#p4c36cab946)" style="fill: #d62728; opacity: 0.5"/>
   </g>
   <g id="patch_118">
    <path d="M 237.988428 244.078125 
L 242.376458 244.078125 
L 242.376458 243.680385 
L 237.988428 243.680385 
z
" clip-path="url(#p4c36cab946)" style="fill: #d62728; opacity: 0.5"/>
   </g>
   <g id="patch_119">
    <path d="M 242.376458 244.078125 
L 246.764488 244.078125 
L 246.764488 244.078125 
L 242.376458 244.078125 
z
" clip-path="url(#p4c36cab946)" style="fill: #d62728; opacity: 0.5"/>
   </g>
   <g id="patch_120">
    <path d="M 246.764488 244.078125 
L 251.152518 244.078125 
L 251.152518 243.680385 
L 246.764488 243.680385 
z
" clip-path="url(#p4c36cab946)" style="fill: #d62728; opacity: 0.5"/>
   </g>
   <g id="patch_121">
    <path d="M 251.152518 244.078125 
L 255.540548 244.078125 
L 255.540548 243.879255 
L 251.152518 243.879255 
z
" clip-path="url(#p4c36cab946)" style="fill: #d62728; opacity: 0.5"/>
   </g>
   <g id="patch_122">
    <path d="M 255.540548 244.078125 
L 259.928578 244.078125 
L 259.928578 243.680385 
L 255.540548 243.680385 
z
" clip-path="url(#p4c36cab946)" style="fill: #d62728; opacity: 0.5"/>
   </g>
   <g id="patch_123">
    <path d="M 104.629802 244.078125 
L 110.151038 244.078125 
L 110.151038 243.879255 
L 104.629802 243.879255 
z
" clip-path="url(#p4c36cab946)" style="fill: #9467bd; opacity: 0.5"/>
   </g>
   <g id="patch_124">
    <path d="M 110.151038 244.078125 
L 115.672274 244.078125 
L 115.672274 244.078125 
L 110.151038 244.078125 
z
" clip-path="url(#p4c36cab946)" style="fill: #9467bd; opacity: 0.5"/>
   </g>
   <g id="patch_125">
    <path d="M 115.672274 244.078125 
L 121.19351 244.078125 
L 121.19351 243.680385 
L 115.672274 243.680385 
z
" clip-path="url(#p4c36cab946)" style="fill: #9467bd; opacity: 0.5"/>
   </g>
   <g id="patch_126">
    <path d="M 121.19351 244.078125 
L 126.714746 244.078125 
L 126.714746 243.680385 
L 121.19351 243.680385 
z
" clip-path="url(#p4c36cab946)" style="fill: #9467bd; opacity: 0.5"/>
   </g>
   <g id="patch_127">
    <path d="M 126.714746 244.078125 
L 132.235982 244.078125 
L 132.235982 243.680385 
L 126.714746 243.680385 
z
" clip-path="url(#p4c36cab946)" style="fill: #9467bd; opacity: 0.5"/>
   </g>
   <g id="patch_128">
    <path d="M 132.235982 244.078125 
L 137.757218 244.078125 
L 137.757218 243.282645 
L 132.235982 243.282645 
z
" clip-path="url(#p4c36cab946)" style="fill: #9467bd; opacity: 0.5"/>
   </g>
   <g id="patch_129">
    <path d="M 137.757218 244.078125 
L 143.278454 244.078125 
L 143.278454 243.282645 
L 137.757218 243.282645 
z
" clip-path="url(#p4c36cab946)" style="fill: #9467bd; opacity: 0.5"/>
   </g>
   <g id="patch_130">
    <path d="M 143.278454 244.078125 
L 148.79969 244.078125 
L 148.79969 240.896204 
L 143.278454 240.896204 
z
" clip-path="url(#p4c36cab946)" style="fill: #9467bd; opacity: 0.5"/>
   </g>
   <g id="patch_131">
    <path d="M 148.79969 244.078125 
L 154.320926 244.078125 
L 154.320926 241.293944 
L 148.79969 241.293944 
z
" clip-path="url(#p4c36cab946)" style="fill: #9467bd; opacity: 0.5"/>
   </g>
   <g id="patch_132">
    <path d="M 154.320926 244.078125 
L 159.842163 244.078125 
L 159.842163 240.896204 
L 154.320926 240.896204 
z
" clip-path="url(#p4c36cab946)" style="fill: #9467bd; opacity: 0.5"/>
   </g>
   <g id="patch_133">
    <path d="M 159.842163 244.078125 
L 165.363399 244.078125 
L 165.363399 239.106374 
L 159.842163 239.106374 
z
" clip-path="url(#p4c36cab946)" style="fill: #9467bd; opacity: 0.5"/>
   </g>
   <g id="patch_134">
    <path d="M 165.363399 244.078125 
L 170.884635 244.078125 
L 170.884635 239.305244 
L 165.363399 239.305244 
z
" clip-path="url(#p4c36cab946)" style="fill: #9467bd; opacity: 0.5"/>
   </g>
   <g id="patch_135">
    <path d="M 170.884635 244.078125 
L 176.405871 244.078125 
L 176.405871 236.322193 
L 170.884635 236.322193 
z
" clip-path="url(#p4c36cab946)" style="fill: #9467bd; opacity: 0.5"/>
   </g>
   <g id="patch_136">
    <path d="M 176.405871 244.078125 
L 181.927107 244.078125 
L 181.927107 227.17417 
L 176.405871 227.17417 
z
" clip-path="url(#p4c36cab946)" style="fill: #9467bd; opacity: 0.5"/>
   </g>
   <g id="patch_137">
    <path d="M 181.927107 244.078125 
L 187.448343 244.078125 
L 187.448343 211.463436 
L 181.927107 211.463436 
z
" clip-path="url(#p4c36cab946)" style="fill: #9467bd; opacity: 0.5"/>
   </g>
   <g id="patch_138">
    <path d="M 187.448343 244.078125 
L 192.969579 244.078125 
L 192.969579 202.713153 
L 187.448343 202.713153 
z
" clip-path="url(#p4c36cab946)" style="fill: #9467bd; opacity: 0.5"/>
   </g>
   <g id="patch_139">
    <path d="M 192.969579 244.078125 
L 198.490815 244.078125 
L 198.490815 227.37304 
L 192.969579 227.37304 
z
" clip-path="url(#p4c36cab946)" style="fill: #9467bd; opacity: 0.5"/>
   </g>
   <g id="patch_140">
    <path d="M 198.490815 244.078125 
L 204.012051 244.078125 
L 204.012051 234.333492 
L 198.490815 234.333492 
z
" clip-path="url(#p4c36cab946)" style="fill: #9467bd; opacity: 0.5"/>
   </g>
   <g id="patch_141">
    <path d="M 204.012051 244.078125 
L 209.533287 244.078125 
L 209.533287 240.299594 
L 204.012051 240.299594 
z
" clip-path="url(#p4c36cab946)" style="fill: #9467bd; opacity: 0.5"/>
   </g>
   <g id="patch_142">
    <path d="M 209.533287 244.078125 
L 215.054523 244.078125 
L 215.054523 241.095074 
L 209.533287 241.095074 
z
" clip-path="url(#p4c36cab946)" style="fill: #9467bd; opacity: 0.5"/>
   </g>
   <g id="patch_143">
    <path d="M 215.054523 244.078125 
L 220.575759 244.078125 
L 220.575759 241.890554 
L 215.054523 241.890554 
z
" clip-path="url(#p4c36cab946)" style="fill: #9467bd; opacity: 0.5"/>
   </g>
   <g id="patch_144">
    <path d="M 220.575759 244.078125 
L 226.096995 244.078125 
L 226.096995 243.083775 
L 220.575759 243.083775 
z
" clip-path="url(#p4c36cab946)" style="fill: #9467bd; opacity: 0.5"/>
   </g>
   <g id="patch_145">
    <path d="M 226.096995 244.078125 
L 231.618231 244.078125 
L 231.618231 243.481515 
L 226.096995 243.481515 
z
" clip-path="url(#p4c36cab946)" style="fill: #9467bd; opacity: 0.5"/>
   </g>
   <g id="patch_146">
    <path d="M 231.618231 244.078125 
L 237.139467 244.078125 
L 237.139467 243.282645 
L 231.618231 243.282645 
z
" clip-path="url(#p4c36cab946)" style="fill: #9467bd; opacity: 0.5"/>
   </g>
   <g id="patch_147">
    <path d="M 237.139467 244.078125 
L 242.660704 244.078125 
L 242.660704 243.481515 
L 237.139467 243.481515 
z
" clip-path="url(#p4c36cab946)" style="fill: #9467bd; opacity: 0.5"/>
   </g>
   <g id="patch_148">
    <path d="M 242.660704 244.078125 
L 248.18194 244.078125 
L 248.18194 243.680385 
L 242.660704 243.680385 
z
" clip-path="url(#p4c36cab946)" style="fill: #9467bd; opacity: 0.5"/>
   </g>
   <g id="patch_149">
    <path d="M 248.18194 244.078125 
L 253.703176 244.078125 
L 253.703176 243.879255 
L 248.18194 243.879255 
z
" clip-path="url(#p4c36cab946)" style="fill: #9467bd; opacity: 0.5"/>
   </g>
   <g id="patch_150">
    <path d="M 253.703176 244.078125 
L 259.224412 244.078125 
L 259.224412 243.879255 
L 253.703176 243.879255 
z
" clip-path="url(#p4c36cab946)" style="fill: #9467bd; opacity: 0.5"/>
   </g>
   <g id="patch_151">
    <path d="M 259.224412 244.078125 
L 264.745648 244.078125 
L 264.745648 243.879255 
L 259.224412 243.879255 
z
" clip-path="url(#p4c36cab946)" style="fill: #9467bd; opacity: 0.5"/>
   </g>
   <g id="patch_152">
    <path d="M 264.745648 244.078125 
L 270.266884 244.078125 
L 270.266884 243.680385 
L 264.745648 243.680385 
z
" clip-path="url(#p4c36cab946)" style="fill: #9467bd; opacity: 0.5"/>
   </g>
   <g id="matplotlib.axis_1">
    <g id="xtick_1">
     <g id="line2d_1">
      <defs>
       <path id="m2cbf35686f" d="M 0 0 
L 0 3.5 
" style="stroke: #000000; stroke-width: 0.8"/>
      </defs>
      <g>
       <use xlink:href="#m2cbf35686f" x="81.190401" y="244.078125" style="stroke: #000000; stroke-width: 0.8"/>
      </g>
     </g>
     <g id="text_1">
      <!-- −10000 -->
      <g transform="translate(61.094307 258.676562) scale(0.1 -0.1)">
       <defs>
        <path id="DejaVuSans-2212" d="M 678 2272 
L 4684 2272 
L 4684 1741 
L 678 1741 
L 678 2272 
z
" transform="scale(0.015625)"/>
        <path id="DejaVuSans-31" d="M 794 531 
L 1825 531 
L 1825 4091 
L 703 3866 
L 703 4441 
L 1819 4666 
L 2450 4666 
L 2450 531 
L 3481 531 
L 3481 0 
L 794 0 
L 794 531 
z
" transform="scale(0.015625)"/>
        <path id="DejaVuSans-30" d="M 2034 4250 
Q 1547 4250 1301 3770 
Q 1056 3291 1056 2328 
Q 1056 1369 1301 889 
Q 1547 409 2034 409 
Q 2525 409 2770 889 
Q 3016 1369 3016 2328 
Q 3016 3291 2770 3770 
Q 2525 4250 2034 4250 
z
M 2034 4750 
Q 2819 4750 3233 4129 
Q 3647 3509 3647 2328 
Q 3647 1150 3233 529 
Q 2819 -91 2034 -91 
Q 1250 -91 836 529 
Q 422 1150 422 2328 
Q 422 3509 836 4129 
Q 1250 4750 2034 4750 
z
" transform="scale(0.015625)"/>
       </defs>
       <use xlink:href="#DejaVuSans-2212"/>
       <use xlink:href="#DejaVuSans-31" transform="translate(83.789062 0)"/>
       <use xlink:href="#DejaVuSans-30" transform="translate(147.412109 0)"/>
       <use xlink:href="#DejaVuSans-30" transform="translate(211.035156 0)"/>
       <use xlink:href="#DejaVuSans-30" transform="translate(274.658203 0)"/>
       <use xlink:href="#DejaVuSans-30" transform="translate(338.28125 0)"/>
      </g>
     </g>
    </g>
    <g id="xtick_2">
     <g id="line2d_2">
      <g>
       <use xlink:href="#m2cbf35686f" x="136.075193" y="244.078125" style="stroke: #000000; stroke-width: 0.8"/>
      </g>
     </g>
     <g id="text_2">
      <!-- −5000 -->
      <g transform="translate(119.16035 258.676562) scale(0.1 -0.1)">
       <defs>
        <path id="DejaVuSans-35" d="M 691 4666 
L 3169 4666 
L 3169 4134 
L 1269 4134 
L 1269 2991 
Q 1406 3038 1543 3061 
Q 1681 3084 1819 3084 
Q 2600 3084 3056 2656 
Q 3513 2228 3513 1497 
Q 3513 744 3044 326 
Q 2575 -91 1722 -91 
Q 1428 -91 1123 -41 
Q 819 9 494 109 
L 494 744 
Q 775 591 1075 516 
Q 1375 441 1709 441 
Q 2250 441 2565 725 
Q 2881 1009 2881 1497 
Q 2881 1984 2565 2268 
Q 2250 2553 1709 2553 
Q 1456 2553 1204 2497 
Q 953 2441 691 2322 
L 691 4666 
z
" transform="scale(0.015625)"/>
       </defs>
       <use xlink:href="#DejaVuSans-2212"/>
       <use xlink:href="#DejaVuSans-35" transform="translate(83.789062 0)"/>
       <use xlink:href="#DejaVuSans-30" transform="translate(147.412109 0)"/>
       <use xlink:href="#DejaVuSans-30" transform="translate(211.035156 0)"/>
       <use xlink:href="#DejaVuSans-30" transform="translate(274.658203 0)"/>
      </g>
     </g>
    </g>
    <g id="xtick_3">
     <g id="line2d_3">
      <g>
       <use xlink:href="#m2cbf35686f" x="190.959986" y="244.078125" style="stroke: #000000; stroke-width: 0.8"/>
      </g>
     </g>
     <g id="text_3">
      <!-- 0 -->
      <g transform="translate(187.778736 258.676562) scale(0.1 -0.1)">
       <use xlink:href="#DejaVuSans-30"/>
      </g>
     </g>
    </g>
    <g id="xtick_4">
     <g id="line2d_4">
      <g>
       <use xlink:href="#m2cbf35686f" x="245.844779" y="244.078125" style="stroke: #000000; stroke-width: 0.8"/>
      </g>
     </g>
     <g id="text_4">
      <!-- 5000 -->
      <g transform="translate(233.119779 258.676562) scale(0.1 -0.1)">
       <use xlink:href="#DejaVuSans-35"/>
       <use xlink:href="#DejaVuSans-30" transform="translate(63.623047 0)"/>
       <use xlink:href="#DejaVuSans-30" transform="translate(127.246094 0)"/>
       <use xlink:href="#DejaVuSans-30" transform="translate(190.869141 0)"/>
      </g>
     </g>
    </g>
    <g id="xtick_5">
     <g id="line2d_5">
      <g>
       <use xlink:href="#m2cbf35686f" x="300.729572" y="244.078125" style="stroke: #000000; stroke-width: 0.8"/>
      </g>
     </g>
     <g id="text_5">
      <!-- 10000 -->
      <g transform="translate(284.823322 258.676562) scale(0.1 -0.1)">
       <use xlink:href="#DejaVuSans-31"/>
       <use xlink:href="#DejaVuSans-30" transform="translate(63.623047 0)"/>
       <use xlink:href="#DejaVuSans-30" transform="translate(127.246094 0)"/>
       <use xlink:href="#DejaVuSans-30" transform="translate(190.869141 0)"/>
       <use xlink:href="#DejaVuSans-30" transform="translate(254.492188 0)"/>
      </g>
     </g>
    </g>
    <g id="xtick_6">
     <g id="line2d_6">
      <g>
       <use xlink:href="#m2cbf35686f" x="355.614364" y="244.078125" style="stroke: #000000; stroke-width: 0.8"/>
      </g>
     </g>
     <g id="text_6">
      <!-- 15000 -->
      <g transform="translate(339.708114 258.676562) scale(0.1 -0.1)">
       <use xlink:href="#DejaVuSans-31"/>
       <use xlink:href="#DejaVuSans-35" transform="translate(63.623047 0)"/>
       <use xlink:href="#DejaVuSans-30" transform="translate(127.246094 0)"/>
       <use xlink:href="#DejaVuSans-30" transform="translate(190.869141 0)"/>
       <use xlink:href="#DejaVuSans-30" transform="translate(254.492188 0)"/>
      </g>
     </g>
    </g>
    <g id="xtick_7">
     <g id="line2d_7">
      <g>
       <use xlink:href="#m2cbf35686f" x="410.499157" y="244.078125" style="stroke: #000000; stroke-width: 0.8"/>
      </g>
     </g>
     <g id="text_7">
      <!-- 20000 -->
      <g transform="translate(394.592907 258.676562) scale(0.1 -0.1)">
       <defs>
        <path id="DejaVuSans-32" d="M 1228 531 
L 3431 531 
L 3431 0 
L 469 0 
L 469 531 
Q 828 903 1448 1529 
Q 2069 2156 2228 2338 
Q 2531 2678 2651 2914 
Q 2772 3150 2772 3378 
Q 2772 3750 2511 3984 
Q 2250 4219 1831 4219 
Q 1534 4219 1204 4116 
Q 875 4013 500 3803 
L 500 4441 
Q 881 4594 1212 4672 
Q 1544 4750 1819 4750 
Q 2544 4750 2975 4387 
Q 3406 4025 3406 3419 
Q 3406 3131 3298 2873 
Q 3191 2616 2906 2266 
Q 2828 2175 2409 1742 
Q 1991 1309 1228 531 
z
" transform="scale(0.015625)"/>
       </defs>
       <use xlink:href="#DejaVuSans-32"/>
       <use xlink:href="#DejaVuSans-30" transform="translate(63.623047 0)"/>
       <use xlink:href="#DejaVuSans-30" transform="translate(127.246094 0)"/>
       <use xlink:href="#DejaVuSans-30" transform="translate(190.869141 0)"/>
       <use xlink:href="#DejaVuSans-30" transform="translate(254.492188 0)"/>
      </g>
     </g>
    </g>
    <g id="xtick_8">
     <g id="line2d_8">
      <g>
       <use xlink:href="#m2cbf35686f" x="465.38395" y="244.078125" style="stroke: #000000; stroke-width: 0.8"/>
      </g>
     </g>
     <g id="text_8">
      <!-- 25000 -->
      <g transform="translate(449.4777 258.676562) scale(0.1 -0.1)">
       <use xlink:href="#DejaVuSans-32"/>
       <use xlink:href="#DejaVuSans-35" transform="translate(63.623047 0)"/>
       <use xlink:href="#DejaVuSans-30" transform="translate(127.246094 0)"/>
       <use xlink:href="#DejaVuSans-30" transform="translate(190.869141 0)"/>
       <use xlink:href="#DejaVuSans-30" transform="translate(254.492188 0)"/>
      </g>
     </g>
    </g>
    <g id="text_9">
     <!-- Parity Basis (C-P) - (S - Ke^{-rT}) -->
     <g transform="translate(179.538281 272.354687) scale(0.1 -0.1)">
      <defs>
       <path id="DejaVuSans-50" d="M 1259 4147 
L 1259 2394 
L 2053 2394 
Q 2494 2394 2734 2622 
Q 2975 2850 2975 3272 
Q 2975 3691 2734 3919 
Q 2494 4147 2053 4147 
L 1259 4147 
z
M 628 4666 
L 2053 4666 
Q 2838 4666 3239 4311 
Q 3641 3956 3641 3272 
Q 3641 2581 3239 2228 
Q 2838 1875 2053 1875 
L 1259 1875 
L 1259 0 
L 628 0 
L 628 4666 
z
" transform="scale(0.015625)"/>
       <path id="DejaVuSans-61" d="M 2194 1759 
Q 1497 1759 1228 1600 
Q 959 1441 959 1056 
Q 959 750 1161 570 
Q 1363 391 1709 391 
Q 2188 391 2477 730 
Q 2766 1069 2766 1631 
L 2766 1759 
L 2194 1759 
z
M 3341 1997 
L 3341 0 
L 2766 0 
L 2766 531 
Q 2569 213 2275 61 
Q 1981 -91 1556 -91 
Q 1019 -91 701 211 
Q 384 513 384 1019 
Q 384 1609 779 1909 
Q 1175 2209 1959 2209 
L 2766 2209 
L 2766 2266 
Q 2766 2663 2505 2880 
Q 2244 3097 1772 3097 
Q 1472 3097 1187 3025 
Q 903 2953 641 2809 
L 641 3341 
Q 956 3463 1253 3523 
Q 1550 3584 1831 3584 
Q 2591 3584 2966 3190 
Q 3341 2797 3341 1997 
z
" transform="scale(0.015625)"/>
       <path id="DejaVuSans-72" d="M 2631 2963 
Q 2534 3019 2420 3045 
Q 2306 3072 2169 3072 
Q 1681 3072 1420 2755 
Q 1159 2438 1159 1844 
L 1159 0 
L 581 0 
L 581 3500 
L 1159 3500 
L 1159 2956 
Q 1341 3275 1631 3429 
Q 1922 3584 2338 3584 
Q 2397 3584 2469 3576 
Q 2541 3569 2628 3553 
L 2631 2963 
z
" transform="scale(0.015625)"/>
       <path id="DejaVuSans-69" d="M 603 3500 
L 1178 3500 
L 1178 0 
L 603 0 
L 603 3500 
z
M 603 4863 
L 1178 4863 
L 1178 4134 
L 603 4134 
L 603 4863 
z
" transform="scale(0.015625)"/>
       <path id="DejaVuSans-74" d="M 1172 4494 
L 1172 3500 
L 2356 3500 
L 2356 3053 
L 1172 3053 
L 1172 1153 
Q 1172 725 1289 603 
Q 1406 481 1766 481 
L 2356 481 
L 2356 0 
L 1766 0 
Q 1100 0 847 248 
Q 594 497 594 1153 
L 594 3053 
L 172 3053 
L 172 3500 
L 594 3500 
L 594 4494 
L 1172 4494 
z
" transform="scale(0.015625)"/>
       <path id="DejaVuSans-79" d="M 2059 -325 
Q 1816 -950 1584 -1140 
Q 1353 -1331 966 -1331 
L 506 -1331 
L 506 -850 
L 844 -850 
Q 1081 -850 1212 -737 
Q 1344 -625 1503 -206 
L 1606 56 
L 191 3500 
L 800 3500 
L 1894 763 
L 2988 3500 
L 3597 3500 
L 2059 -325 
z
" transform="scale(0.015625)"/>
       <path id="DejaVuSans-20" transform="scale(0.015625)"/>
       <path id="DejaVuSans-42" d="M 1259 2228 
L 1259 519 
L 2272 519 
Q 2781 519 3026 730 
Q 3272 941 3272 1375 
Q 3272 1813 3026 2020 
Q 2781 2228 2272 2228 
L 1259 2228 
z
M 1259 4147 
L 1259 2741 
L 2194 2741 
Q 2656 2741 2882 2914 
Q 3109 3088 3109 3444 
Q 3109 3797 2882 3972 
Q 2656 4147 2194 4147 
L 1259 4147 
z
M 628 4666 
L 2241 4666 
Q 2963 4666 3353 4366 
Q 3744 4066 3744 3513 
Q 3744 3084 3544 2831 
Q 3344 2578 2956 2516 
Q 3422 2416 3680 2098 
Q 3938 1781 3938 1306 
Q 3938 681 3513 340 
Q 3088 0 2303 0 
L 628 0 
L 628 4666 
z
" transform="scale(0.015625)"/>
       <path id="DejaVuSans-73" d="M 2834 3397 
L 2834 2853 
Q 2591 2978 2328 3040 
Q 2066 3103 1784 3103 
Q 1356 3103 1142 2972 
Q 928 2841 928 2578 
Q 928 2378 1081 2264 
Q 1234 2150 1697 2047 
L 1894 2003 
Q 2506 1872 2764 1633 
Q 3022 1394 3022 966 
Q 3022 478 2636 193 
Q 2250 -91 1575 -91 
Q 1294 -91 989 -36 
Q 684 19 347 128 
L 347 722 
Q 666 556 975 473 
Q 1284 391 1588 391 
Q 1994 391 2212 530 
Q 2431 669 2431 922 
Q 2431 1156 2273 1281 
Q 2116 1406 1581 1522 
L 1381 1569 
Q 847 1681 609 1914 
Q 372 2147 372 2553 
Q 372 3047 722 3315 
Q 1072 3584 1716 3584 
Q 2034 3584 2315 3537 
Q 2597 3491 2834 3397 
z
" transform="scale(0.015625)"/>
       <path id="DejaVuSans-28" d="M 1984 4856 
Q 1566 4138 1362 3434 
Q 1159 2731 1159 2009 
Q 1159 1288 1364 580 
Q 1569 -128 1984 -844 
L 1484 -844 
Q 1016 -109 783 600 
Q 550 1309 550 2009 
Q 550 2706 781 3412 
Q 1013 4119 1484 4856 
L 1984 4856 
z
" transform="scale(0.015625)"/>
       <path id="DejaVuSans-43" d="M 4122 4306 
L 4122 3641 
Q 3803 3938 3442 4084 
Q 3081 4231 2675 4231 
Q 1875 4231 1450 3742 
Q 1025 3253 1025 2328 
Q 1025 1406 1450 917 
Q 1875 428 2675 428 
Q 3081 428 3442 575 
Q 3803 722 4122 1019 
L 4122 359 
Q 3791 134 3420 21 
Q 3050 -91 2638 -91 
Q 1578 -91 968 557 
Q 359 1206 359 2328 
Q 359 3453 968 4101 
Q 1578 4750 2638 4750 
Q 3056 4750 3426 4639 
Q 3797 4528 4122 4306 
z
" transform="scale(0.015625)"/>
       <path id="DejaVuSans-2d" d="M 313 2009 
L 1997 2009 
L 1997 1497 
L 313 1497 
L 313 2009 
z
" transform="scale(0.015625)"/>
       <path id="DejaVuSans-29" d="M 513 4856 
L 1013 4856 
Q 1481 4119 1714 3412 
Q 1947 2706 1947 2009 
Q 1947 1309 1714 600 
Q 1481 -109 1013 -844 
L 513 -844 
Q 928 -128 1133 580 
Q 1338 1288 1338 2009 
Q 1338 2731 1133 3434 
Q 928 4138 513 4856 
z
" transform="scale(0.015625)"/>
       <path id="DejaVuSans-53" d="M 3425 4513 
L 3425 3897 
Q 3066 4069 2747 4153 
Q 2428 4238 2131 4238 
Q 1616 4238 1336 4038 
Q 1056 3838 1056 3469 
Q 1056 3159 1242 3001 
Q 1428 2844 1947 2747 
L 2328 2669 
Q 3034 2534 3370 2195 
Q 3706 1856 3706 1288 
Q 3706 609 3251 259 
Q 2797 -91 1919 -91 
Q 1588 -91 1214 -16 
Q 841 59 441 206 
L 441 856 
Q 825 641 1194 531 
Q 1563 422 1919 422 
Q 2459 422 2753 634 
Q 3047 847 3047 1241 
Q 3047 1584 2836 1778 
Q 2625 1972 2144 2069 
L 1759 2144 
Q 1053 2284 737 2584 
Q 422 2884 422 3419 
Q 422 4038 858 4394 
Q 1294 4750 2059 4750 
Q 2388 4750 2728 4690 
Q 3069 4631 3425 4513 
z
" transform="scale(0.015625)"/>
       <path id="DejaVuSans-4b" d="M 628 4666 
L 1259 4666 
L 1259 2694 
L 3353 4666 
L 4166 4666 
L 1850 2491 
L 4331 0 
L 3500 0 
L 1259 2247 
L 1259 0 
L 628 0 
L 628 4666 
z
" transform="scale(0.015625)"/>
       <path id="DejaVuSans-65" d="M 3597 1894 
L 3597 1613 
L 953 1613 
Q 991 1019 1311 708 
Q 1631 397 2203 397 
Q 2534 397 2845 478 
Q 3156 559 3463 722 
L 3463 178 
Q 3153 47 2828 -22 
Q 2503 -91 2169 -91 
Q 1331 -91 842 396 
Q 353 884 353 1716 
Q 353 2575 817 3079 
Q 1281 3584 2069 3584 
Q 2775 3584 3186 3129 
Q 3597 2675 3597 1894 
z
M 3022 2063 
Q 3016 2534 2758 2815 
Q 2500 3097 2075 3097 
Q 1594 3097 1305 2825 
Q 1016 2553 972 2059 
L 3022 2063 
z
" transform="scale(0.015625)"/>
       <path id="DejaVuSans-5e" d="M 2988 4666 
L 4684 2925 
L 4056 2925 
L 2681 4159 
L 1306 2925 
L 678 2925 
L 2375 4666 
L 2988 4666 
z
" transform="scale(0.015625)"/>
       <path id="DejaVuSans-7b" d="M 3272 -594 
L 3272 -1044 
L 3078 -1044 
Q 2300 -1044 2036 -812 
Q 1772 -581 1772 109 
L 1772 856 
Q 1772 1328 1603 1509 
Q 1434 1691 991 1691 
L 800 1691 
L 800 2138 
L 991 2138 
Q 1438 2138 1605 2317 
Q 1772 2497 1772 2963 
L 1772 3713 
Q 1772 4403 2036 4633 
Q 2300 4863 3078 4863 
L 3272 4863 
L 3272 4416 
L 3059 4416 
Q 2619 4416 2484 4278 
Q 2350 4141 2350 3700 
L 2350 2925 
Q 2350 2434 2208 2212 
Q 2066 1991 1722 1913 
Q 2069 1828 2209 1606 
Q 2350 1384 2350 897 
L 2350 122 
Q 2350 -319 2484 -456 
Q 2619 -594 3059 -594 
L 3272 -594 
z
" transform="scale(0.015625)"/>
       <path id="DejaVuSans-54" d="M -19 4666 
L 3928 4666 
L 3928 4134 
L 2272 4134 
L 2272 0 
L 1638 0 
L 1638 4134 
L -19 4134 
L -19 4666 
z
" transform="scale(0.015625)"/>
       <path id="DejaVuSans-7d" d="M 800 -594 
L 1019 -594 
Q 1456 -594 1589 -459 
Q 1722 -325 1722 122 
L 1722 897 
Q 1722 1384 1862 1606 
Q 2003 1828 2350 1913 
Q 2003 1991 1862 2212 
Q 1722 2434 1722 2925 
L 1722 3700 
Q 1722 4144 1589 4280 
Q 1456 4416 1019 4416 
L 800 4416 
L 800 4863 
L 997 4863 
Q 1775 4863 2036 4633 
Q 2297 4403 2297 3713 
L 2297 2963 
Q 2297 2497 2465 2317 
Q 2634 2138 3078 2138 
L 3272 2138 
L 3272 1691 
L 3078 1691 
Q 2634 1691 2465 1509 
Q 2297 1328 2297 856 
L 2297 109 
Q 2297 -581 2036 -812 
Q 1775 -1044 997 -1044 
L 800 -1044 
L 800 -594 
z
" transform="scale(0.015625)"/>
      </defs>
      <use xlink:href="#DejaVuSans-50"/>
      <use xlink:href="#DejaVuSans-61" transform="translate(55.802734 0)"/>
      <use xlink:href="#DejaVuSans-72" transform="translate(117.082031 0)"/>
      <use xlink:href="#DejaVuSans-69" transform="translate(158.195312 0)"/>
      <use xlink:href="#DejaVuSans-74" transform="translate(185.978516 0)"/>
      <use xlink:href="#DejaVuSans-79" transform="translate(225.1875 0)"/>
      <use xlink:href="#DejaVuSans-20" transform="translate(284.367188 0)"/>
      <use xlink:href="#DejaVuSans-42" transform="translate(316.154297 0)"/>
      <use xlink:href="#DejaVuSans-61" transform="translate(384.757812 0)"/>
      <use xlink:href="#DejaVuSans-73" transform="translate(446.037109 0)"/>
      <use xlink:href="#DejaVuSans-69" transform="translate(498.136719 0)"/>
      <use xlink:href="#DejaVuSans-73" transform="translate(525.919922 0)"/>
      <use xlink:href="#DejaVuSans-20" transform="translate(578.019531 0)"/>
      <use xlink:href="#DejaVuSans-28" transform="translate(609.806641 0)"/>
      <use xlink:href="#DejaVuSans-43" transform="translate(648.820312 0)"/>
      <use xlink:href="#DejaVuSans-2d" transform="translate(718.644531 0)"/>
      <use xlink:href="#DejaVuSans-50" transform="translate(754.728516 0)"/>
      <use xlink:href="#DejaVuSans-29" transform="translate(815.03125 0)"/>
      <use xlink:href="#DejaVuSans-20" transform="translate(854.044922 0)"/>
      <use xlink:href="#DejaVuSans-2d" transform="translate(885.832031 0)"/>
      <use xlink:href="#DejaVuSans-20" transform="translate(921.916016 0)"/>
      <use xlink:href="#DejaVuSans-28" transform="translate(953.703125 0)"/>
      <use xlink:href="#DejaVuSans-53" transform="translate(992.716797 0)"/>
      <use xlink:href="#DejaVuSans-20" transform="translate(1056.193359 0)"/>
      <use xlink:href="#DejaVuSans-2d" transform="translate(1087.980469 0)"/>
      <use xlink:href="#DejaVuSans-20" transform="translate(1124.064453 0)"/>
      <use xlink:href="#DejaVuSans-4b" transform="translate(1155.851562 0)"/>
      <use xlink:href="#DejaVuSans-65" transform="translate(1216.427734 0)"/>
      <use xlink:href="#DejaVuSans-5e" transform="translate(1277.951172 0)"/>
      <use xlink:href="#DejaVuSans-7b" transform="translate(1361.740234 0)"/>
      <use xlink:href="#DejaVuSans-2d" transform="translate(1425.363281 0)"/>
      <use xlink:href="#DejaVuSans-72" transform="translate(1461.447266 0)"/>
      <use xlink:href="#DejaVuSans-54" transform="translate(1502.560547 0)"/>
      <use xlink:href="#DejaVuSans-7d" transform="translate(1563.644531 0)"/>
      <use xlink:href="#DejaVuSans-29" transform="translate(1627.267578 0)"/>
     </g>
    </g>
   </g>
   <g id="matplotlib.axis_2">
    <g id="ytick_1">
     <g id="line2d_9">
      <defs>
       <path id="mca947a9cea" d="M 0 0 
L -3.5 0 
" style="stroke: #000000; stroke-width: 0.8"/>
      </defs>
      <g>
       <use xlink:href="#mca947a9cea" x="39.65" y="244.078125" style="stroke: #000000; stroke-width: 0.8"/>
      </g>
     </g>
     <g id="text_10">
      <!-- 0 -->
      <g transform="translate(26.2875 247.877344) scale(0.1 -0.1)">
       <use xlink:href="#DejaVuSans-30"/>
      </g>
     </g>
    </g>
    <g id="ytick_2">
     <g id="line2d_10">
      <g>
       <use xlink:href="#mca947a9cea" x="39.65" y="204.304114" style="stroke: #000000; stroke-width: 0.8"/>
      </g>
     </g>
     <g id="text_11">
      <!-- 200 -->
      <g transform="translate(13.5625 208.103332) scale(0.1 -0.1)">
       <use xlink:href="#DejaVuSans-32"/>
       <use xlink:href="#DejaVuSans-30" transform="translate(63.623047 0)"/>
       <use xlink:href="#DejaVuSans-30" transform="translate(127.246094 0)"/>
      </g>
     </g>
    </g>
    <g id="ytick_3">
     <g id="line2d_11">
      <g>
       <use xlink:href="#mca947a9cea" x="39.65" y="164.530102" style="stroke: #000000; stroke-width: 0.8"/>
      </g>
     </g>
     <g id="text_12">
      <!-- 400 -->
      <g transform="translate(13.5625 168.329321) scale(0.1 -0.1)">
       <defs>
        <path id="DejaVuSans-34" d="M 2419 4116 
L 825 1625 
L 2419 1625 
L 2419 4116 
z
M 2253 4666 
L 3047 4666 
L 3047 1625 
L 3713 1625 
L 3713 1100 
L 3047 1100 
L 3047 0 
L 2419 0 
L 2419 1100 
L 313 1100 
L 313 1709 
L 2253 4666 
z
" transform="scale(0.015625)"/>
       </defs>
       <use xlink:href="#DejaVuSans-34"/>
       <use xlink:href="#DejaVuSans-30" transform="translate(63.623047 0)"/>
       <use xlink:href="#DejaVuSans-30" transform="translate(127.246094 0)"/>
      </g>
     </g>
    </g>
    <g id="ytick_4">
     <g id="line2d_12">
      <g>
       <use xlink:href="#mca947a9cea" x="39.65" y="124.756091" style="stroke: #000000; stroke-width: 0.8"/>
      </g>
     </g>
     <g id="text_13">
      <!-- 600 -->
      <g transform="translate(13.5625 128.55531) scale(0.1 -0.1)">
       <defs>
        <path id="DejaVuSans-36" d="M 2113 2584 
Q 1688 2584 1439 2293 
Q 1191 2003 1191 1497 
Q 1191 994 1439 701 
Q 1688 409 2113 409 
Q 2538 409 2786 701 
Q 3034 994 3034 1497 
Q 3034 2003 2786 2293 
Q 2538 2584 2113 2584 
z
M 3366 4563 
L 3366 3988 
Q 3128 4100 2886 4159 
Q 2644 4219 2406 4219 
Q 1781 4219 1451 3797 
Q 1122 3375 1075 2522 
Q 1259 2794 1537 2939 
Q 1816 3084 2150 3084 
Q 2853 3084 3261 2657 
Q 3669 2231 3669 1497 
Q 3669 778 3244 343 
Q 2819 -91 2113 -91 
Q 1303 -91 875 529 
Q 447 1150 447 2328 
Q 447 3434 972 4092 
Q 1497 4750 2381 4750 
Q 2619 4750 2861 4703 
Q 3103 4656 3366 4563 
z
" transform="scale(0.015625)"/>
       </defs>
       <use xlink:href="#DejaVuSans-36"/>
       <use xlink:href="#DejaVuSans-30" transform="translate(63.623047 0)"/>
       <use xlink:href="#DejaVuSans-30" transform="translate(127.246094 0)"/>
      </g>
     </g>
    </g>
    <g id="ytick_5">
     <g id="line2d_13">
      <g>
       <use xlink:href="#mca947a9cea" x="39.65" y="84.98208" style="stroke: #000000; stroke-width: 0.8"/>
      </g>
     </g>
     <g id="text_14">
      <!-- 800 -->
      <g transform="translate(13.5625 88.781299) scale(0.1 -0.1)">
       <defs>
        <path id="DejaVuSans-38" d="M 2034 2216 
Q 1584 2216 1326 1975 
Q 1069 1734 1069 1313 
Q 1069 891 1326 650 
Q 1584 409 2034 409 
Q 2484 409 2743 651 
Q 3003 894 3003 1313 
Q 3003 1734 2745 1975 
Q 2488 2216 2034 2216 
z
M 1403 2484 
Q 997 2584 770 2862 
Q 544 3141 544 3541 
Q 544 4100 942 4425 
Q 1341 4750 2034 4750 
Q 2731 4750 3128 4425 
Q 3525 4100 3525 3541 
Q 3525 3141 3298 2862 
Q 3072 2584 2669 2484 
Q 3125 2378 3379 2068 
Q 3634 1759 3634 1313 
Q 3634 634 3220 271 
Q 2806 -91 2034 -91 
Q 1263 -91 848 271 
Q 434 634 434 1313 
Q 434 1759 690 2068 
Q 947 2378 1403 2484 
z
M 1172 3481 
Q 1172 3119 1398 2916 
Q 1625 2713 2034 2713 
Q 2441 2713 2670 2916 
Q 2900 3119 2900 3481 
Q 2900 3844 2670 4047 
Q 2441 4250 2034 4250 
Q 1625 4250 1398 4047 
Q 1172 3844 1172 3481 
z
" transform="scale(0.015625)"/>
       </defs>
       <use xlink:href="#DejaVuSans-38"/>
       <use xlink:href="#DejaVuSans-30" transform="translate(63.623047 0)"/>
       <use xlink:href="#DejaVuSans-30" transform="translate(127.246094 0)"/>
      </g>
     </g>
    </g>
    <g id="ytick_6">
     <g id="line2d_14">
      <g>
       <use xlink:href="#mca947a9cea" x="39.65" y="45.208069" style="stroke: #000000; stroke-width: 0.8"/>
      </g>
     </g>
     <g id="text_15">
      <!-- 1000 -->
      <g transform="translate(7.2 49.007287) scale(0.1 -0.1)">
       <use xlink:href="#DejaVuSans-31"/>
       <use xlink:href="#DejaVuSans-30" transform="translate(63.623047 0)"/>
       <use xlink:href="#DejaVuSans-30" transform="translate(127.246094 0)"/>
       <use xlink:href="#DejaVuSans-30" transform="translate(190.869141 0)"/>
      </g>
     </g>
    </g>
   </g>
   <g id="line2d_15">
    <path d="M 190.959986 244.078125 
L 190.959986 22.318125 
" clip-path="url(#p4c36cab946)" style="fill: none; stroke: #000000; stroke-width: 1.5; stroke-linecap: square"/>
   </g>
   <g id="patch_153">
    <path d="M 39.65 244.078125 
L 39.65 22.318125 
" style="fill: none; stroke: #000000; stroke-width: 0.8; stroke-linejoin: miter; stroke-linecap: square"/>
   </g>
   <g id="patch_154">
    <path d="M 486.05 244.078125 
L 486.05 22.318125 
" style="fill: none; stroke: #000000; stroke-width: 0.8; stroke-linejoin: miter; stroke-linecap: square"/>
   </g>
   <g id="patch_155">
    <path d="M 39.65 244.078125 
L 486.05 244.078125 
" style="fill: none; stroke: #000000; stroke-width: 0.8; stroke-linejoin: miter; stroke-linecap: square"/>
   </g>
   <g id="patch_156">
    <path d="M 39.65 22.318125 
L 486.05 22.318125 
" style="fill: none; stroke: #000000; stroke-width: 0.8; stroke-linejoin: miter; stroke-linecap: square"/>
   </g>
   <g id="text_16">
    <!-- Put-Call Parity Basis by Moneyness -->
    <g transform="translate(158.417188 16.318125) scale(0.12 -0.12)">
     <defs>
      <path id="DejaVuSans-75" d="M 544 1381 
L 544 3500 
L 1119 3500 
L 1119 1403 
Q 1119 906 1312 657 
Q 1506 409 1894 409 
Q 2359 409 2629 706 
Q 2900 1003 2900 1516 
L 2900 3500 
L 3475 3500 
L 3475 0 
L 2900 0 
L 2900 538 
Q 2691 219 2414 64 
Q 2138 -91 1772 -91 
Q 1169 -91 856 284 
Q 544 659 544 1381 
z
M 1991 3584 
L 1991 3584 
z
" transform="scale(0.015625)"/>
      <path id="DejaVuSans-6c" d="M 603 4863 
L 1178 4863 
L 1178 0 
L 603 0 
L 603 4863 
z
" transform="scale(0.015625)"/>
      <path id="DejaVuSans-62" d="M 3116 1747 
Q 3116 2381 2855 2742 
Q 2594 3103 2138 3103 
Q 1681 3103 1420 2742 
Q 1159 2381 1159 1747 
Q 1159 1113 1420 752 
Q 1681 391 2138 391 
Q 2594 391 2855 752 
Q 3116 1113 3116 1747 
z
M 1159 2969 
Q 1341 3281 1617 3432 
Q 1894 3584 2278 3584 
Q 2916 3584 3314 3078 
Q 3713 2572 3713 1747 
Q 3713 922 3314 415 
Q 2916 -91 2278 -91 
Q 1894 -91 1617 61 
Q 1341 213 1159 525 
L 1159 0 
L 581 0 
L 581 4863 
L 1159 4863 
L 1159 2969 
z
" transform="scale(0.015625)"/>
      <path id="DejaVuSans-4d" d="M 628 4666 
L 1569 4666 
L 2759 1491 
L 3956 4666 
L 4897 4666 
L 4897 0 
L 4281 0 
L 4281 4097 
L 3078 897 
L 2444 897 
L 1241 4097 
L 1241 0 
L 628 0 
L 628 4666 
z
" transform="scale(0.015625)"/>
      <path id="DejaVuSans-6f" d="M 1959 3097 
Q 1497 3097 1228 2736 
Q 959 2375 959 1747 
Q 959 1119 1226 758 
Q 1494 397 1959 397 
Q 2419 397 2687 759 
Q 2956 1122 2956 1747 
Q 2956 2369 2687 2733 
Q 2419 3097 1959 3097 
z
M 1959 3584 
Q 2709 3584 3137 3096 
Q 3566 2609 3566 1747 
Q 3566 888 3137 398 
Q 2709 -91 1959 -91 
Q 1206 -91 779 398 
Q 353 888 353 1747 
Q 353 2609 779 3096 
Q 1206 3584 1959 3584 
z
" transform="scale(0.015625)"/>
      <path id="DejaVuSans-6e" d="M 3513 2113 
L 3513 0 
L 2938 0 
L 2938 2094 
Q 2938 2591 2744 2837 
Q 2550 3084 2163 3084 
Q 1697 3084 1428 2787 
Q 1159 2491 1159 1978 
L 1159 0 
L 581 0 
L 581 3500 
L 1159 3500 
L 1159 2956 
Q 1366 3272 1645 3428 
Q 1925 3584 2291 3584 
Q 2894 3584 3203 3211 
Q 3513 2838 3513 2113 
z
" transform="scale(0.015625)"/>
     </defs>
     <use xlink:href="#DejaVuSans-50"/>
     <use xlink:href="#DejaVuSans-75" transform="translate(58.552734 0)"/>
     <use xlink:href="#DejaVuSans-74" transform="translate(121.931641 0)"/>
     <use xlink:href="#DejaVuSans-2d" transform="translate(161.140625 0)"/>
     <use xlink:href="#DejaVuSans-43" transform="translate(197.224609 0)"/>
     <use xlink:href="#DejaVuSans-61" transform="translate(267.048828 0)"/>
     <use xlink:href="#DejaVuSans-6c" transform="translate(328.328125 0)"/>
     <use xlink:href="#DejaVuSans-6c" transform="translate(356.111328 0)"/>
     <use xlink:href="#DejaVuSans-20" transform="translate(383.894531 0)"/>
     <use xlink:href="#DejaVuSans-50" transform="translate(415.681641 0)"/>
     <use xlink:href="#DejaVuSans-61" transform="translate(471.484375 0)"/>
     <use xlink:href="#DejaVuSans-72" transform="translate(532.763672 0)"/>
     <use xlink:href="#DejaVuSans-69" transform="translate(573.876953 0)"/>
     <use xlink:href="#DejaVuSans-74" transform="translate(601.660156 0)"/>
     <use xlink:href="#DejaVuSans-79" transform="translate(640.869141 0)"/>
     <use xlink:href="#DejaVuSans-20" transform="translate(700.048828 0)"/>
     <use xlink:href="#DejaVuSans-42" transform="translate(731.835938 0)"/>
     <use xlink:href="#DejaVuSans-61" transform="translate(800.439453 0)"/>
     <use xlink:href="#DejaVuSans-73" transform="translate(861.71875 0)"/>
     <use xlink:href="#DejaVuSans-69" transform="translate(913.818359 0)"/>
     <use xlink:href="#DejaVuSans-73" transform="translate(941.601562 0)"/>
     <use xlink:href="#DejaVuSans-20" transform="translate(993.701172 0)"/>
     <use xlink:href="#DejaVuSans-62" transform="translate(1025.488281 0)"/>
     <use xlink:href="#DejaVuSans-79" transform="translate(1088.964844 0)"/>
     <use xlink:href="#DejaVuSans-20" transform="translate(1148.144531 0)"/>
     <use xlink:href="#DejaVuSans-4d" transform="translate(1179.931641 0)"/>
     <use xlink:href="#DejaVuSans-6f" transform="translate(1266.210938 0)"/>
     <use xlink:href="#DejaVuSans-6e" transform="translate(1327.392578 0)"/>
     <use xlink:href="#DejaVuSans-65" transform="translate(1390.771484 0)"/>
     <use xlink:href="#DejaVuSans-79" transform="translate(1452.294922 0)"/>
     <use xlink:href="#DejaVuSans-6e" transform="translate(1511.474609 0)"/>
     <use xlink:href="#DejaVuSans-65" transform="translate(1574.853516 0)"/>
     <use xlink:href="#DejaVuSans-73" transform="translate(1636.376953 0)"/>
     <use xlink:href="#DejaVuSans-73" transform="translate(1688.476562 0)"/>
    </g>
   </g>
   <g id="legend_1">
    <g id="patch_157">
     <path d="M 397.267187 104.265 
L 479.05 104.265 
Q 481.05 104.265 481.05 102.265 
L 481.05 29.318125 
Q 481.05 27.318125 479.05 27.318125 
L 397.267187 27.318125 
Q 395.267187 27.318125 395.267187 29.318125 
L 395.267187 102.265 
Q 395.267187 104.265 397.267187 104.265 
z
" style="fill: #ffffff; opacity: 0.8; stroke: #cccccc; stroke-linejoin: miter"/>
    </g>
    <g id="patch_158">
     <path d="M 399.267187 38.916562 
L 419.267187 38.916562 
L 419.267187 31.916562 
L 399.267187 31.916562 
z
" style="fill: #1f77b4; opacity: 0.5"/>
    </g>
    <g id="text_17">
     <!-- atm -->
     <g transform="translate(427.267187 38.916562) scale(0.1 -0.1)">
      <defs>
       <path id="DejaVuSans-6d" d="M 3328 2828 
Q 3544 3216 3844 3400 
Q 4144 3584 4550 3584 
Q 5097 3584 5394 3201 
Q 5691 2819 5691 2113 
L 5691 0 
L 5113 0 
L 5113 2094 
Q 5113 2597 4934 2840 
Q 4756 3084 4391 3084 
Q 3944 3084 3684 2787 
Q 3425 2491 3425 1978 
L 3425 0 
L 2847 0 
L 2847 2094 
Q 2847 2600 2669 2842 
Q 2491 3084 2119 3084 
Q 1678 3084 1418 2786 
Q 1159 2488 1159 1978 
L 1159 0 
L 581 0 
L 581 3500 
L 1159 3500 
L 1159 2956 
Q 1356 3278 1631 3431 
Q 1906 3584 2284 3584 
Q 2666 3584 2933 3390 
Q 3200 3197 3328 2828 
z
" transform="scale(0.015625)"/>
      </defs>
      <use xlink:href="#DejaVuSans-61"/>
      <use xlink:href="#DejaVuSans-74" transform="translate(61.279297 0)"/>
      <use xlink:href="#DejaVuSans-6d" transform="translate(100.488281 0)"/>
     </g>
    </g>
    <g id="patch_159">
     <path d="M 399.267187 53.594687 
L 419.267187 53.594687 
L 419.267187 46.594687 
L 399.267187 46.594687 
z
" style="fill: #ff7f0e; opacity: 0.5"/>
    </g>
    <g id="text_18">
     <!-- deep_itm -->
     <g transform="translate(427.267187 53.594687) scale(0.1 -0.1)">
      <defs>
       <path id="DejaVuSans-64" d="M 2906 2969 
L 2906 4863 
L 3481 4863 
L 3481 0 
L 2906 0 
L 2906 525 
Q 2725 213 2448 61 
Q 2172 -91 1784 -91 
Q 1150 -91 751 415 
Q 353 922 353 1747 
Q 353 2572 751 3078 
Q 1150 3584 1784 3584 
Q 2172 3584 2448 3432 
Q 2725 3281 2906 2969 
z
M 947 1747 
Q 947 1113 1208 752 
Q 1469 391 1925 391 
Q 2381 391 2643 752 
Q 2906 1113 2906 1747 
Q 2906 2381 2643 2742 
Q 2381 3103 1925 3103 
Q 1469 3103 1208 2742 
Q 947 2381 947 1747 
z
" transform="scale(0.015625)"/>
       <path id="DejaVuSans-70" d="M 1159 525 
L 1159 -1331 
L 581 -1331 
L 581 3500 
L 1159 3500 
L 1159 2969 
Q 1341 3281 1617 3432 
Q 1894 3584 2278 3584 
Q 2916 3584 3314 3078 
Q 3713 2572 3713 1747 
Q 3713 922 3314 415 
Q 2916 -91 2278 -91 
Q 1894 -91 1617 61 
Q 1341 213 1159 525 
z
M 3116 1747 
Q 3116 2381 2855 2742 
Q 2594 3103 2138 3103 
Q 1681 3103 1420 2742 
Q 1159 2381 1159 1747 
Q 1159 1113 1420 752 
Q 1681 391 2138 391 
Q 2594 391 2855 752 
Q 3116 1113 3116 1747 
z
" transform="scale(0.015625)"/>
       <path id="DejaVuSans-5f" d="M 3263 -1063 
L 3263 -1509 
L -63 -1509 
L -63 -1063 
L 3263 -1063 
z
" transform="scale(0.015625)"/>
      </defs>
      <use xlink:href="#DejaVuSans-64"/>
      <use xlink:href="#DejaVuSans-65" transform="translate(63.476562 0)"/>
      <use xlink:href="#DejaVuSans-65" transform="translate(125 0)"/>
      <use xlink:href="#DejaVuSans-70" transform="translate(186.523438 0)"/>
      <use xlink:href="#DejaVuSans-5f" transform="translate(250 0)"/>
      <use xlink:href="#DejaVuSans-69" transform="translate(300 0)"/>
      <use xlink:href="#DejaVuSans-74" transform="translate(327.783203 0)"/>
      <use xlink:href="#DejaVuSans-6d" transform="translate(366.992188 0)"/>
     </g>
    </g>
    <g id="patch_160">
     <path d="M 399.267187 68.550937 
L 419.267187 68.550937 
L 419.267187 61.550937 
L 399.267187 61.550937 
z
" style="fill: #2ca02c; opacity: 0.5"/>
    </g>
    <g id="text_19">
     <!-- deep_otm -->
     <g transform="translate(427.267187 68.550937) scale(0.1 -0.1)">
      <use xlink:href="#DejaVuSans-64"/>
      <use xlink:href="#DejaVuSans-65" transform="translate(63.476562 0)"/>
      <use xlink:href="#DejaVuSans-65" transform="translate(125 0)"/>
      <use xlink:href="#DejaVuSans-70" transform="translate(186.523438 0)"/>
      <use xlink:href="#DejaVuSans-5f" transform="translate(250 0)"/>
      <use xlink:href="#DejaVuSans-6f" transform="translate(300 0)"/>
      <use xlink:href="#DejaVuSans-74" transform="translate(361.181641 0)"/>
      <use xlink:href="#DejaVuSans-6d" transform="translate(400.390625 0)"/>
     </g>
    </g>
    <g id="patch_161">
     <path d="M 399.267187 83.507187 
L 419.267187 83.507187 
L 419.267187 76.507187 
L 399.267187 76.507187 
z
" style="fill: #d62728; opacity: 0.5"/>
    </g>
    <g id="text_20">
     <!-- itm -->
     <g transform="translate(427.267187 83.507187) scale(0.1 -0.1)">
      <use xlink:href="#DejaVuSans-69"/>
      <use xlink:href="#DejaVuSans-74" transform="translate(27.783203 0)"/>
      <use xlink:href="#DejaVuSans-6d" transform="translate(66.992188 0)"/>
     </g>
    </g>
    <g id="patch_162">
     <path d="M 399.267187 98.185312 
L 419.267187 98.185312 
L 419.267187 91.185312 
L 399.267187 91.185312 
z
" style="fill: #9467bd; opacity: 0.5"/>
    </g>
    <g id="text_21">
     <!-- otm -->
     <g transform="translate(427.267187 98.185312) scale(0.1 -0.1)">
      <use xlink:href="#DejaVuSans-6f"/>
      <use xlink:href="#DejaVuSans-74" transform="translate(61.181641 0)"/>
      <use xlink:href="#DejaVuSans-6d" transform="translate(100.390625 0)"/>
     </g>
    </g>
   </g>
  </g>
 </g>
 <defs>
  <clipPath id="p4c36cab946">
   <rect x="39.65" y="22.318125" width="446.4" height="221.76"/>
  </clipPath>
 </defs>
</svg>
